# Blender v2.83.0 OBJ File: ''
# www.blender.org
mtllib cube1.mtl
o ungrouped
v -1.000000 -0.003248 1.000000
v 1.000000 -0.003248 1.000000
v -1.000000 1.996752 1.000000
v 1.000000 1.996752 1.000000
v 1.000000 -0.003248 -1.000000
v -1.000000 -0.003248 -1.000000
v 1.000000 1.996752 -1.000000
v -1.000000 1.996752 -1.000000

vt 1.000000 0.000000
vt 0.000000 0.000000
vt 0.000000 1.000000
vt 1.000000 0.000000
vt 0.000000 0.000000
vt 1.000000 0.000000
vt 0.000000 0.000000
vt 0.000000 1.000000
vt 1.000000 0.000000
vt 0.000000 0.000000
vt 0.000000 0.000000
vt 1.000000 0.000000
vt 1.000000 0.000000
vt 0.000000 1.000000
vt 0.000000 0.000000

vn 0.0000 -0.0000 1.0000
vn 0.0000 0.0000 -1.0000
vn -1.0000 0.0000 0.0000
vn 1.0000 0.0000 0.0000
vn 0.0000 1.0000 0.0000
vn 0.0000 -1.0000 -0.0000

usemtl Default_OBJ
s 1
f 1/1/1 2/2/1 3/3/1
f 2/4/1 4/5/1 3/3/1
f 5/6/2 6/7/2 7/8/2
f 6/9/2 8/10/2 7/8/2
f 3/3/3 6/7/3 1/1/3
f 3/3/3 8/10/3 6/9/3
f 7/8/4 2/2/4 5/6/4
f 7/8/4 4/5/4 2/4/4
f 3/3/5 7/11/5 8/12/5
f 3/3/5 4/5/5 7/13/5
f 2/14/6 6/7/6 5/6/6
f 2/14/6 1/15/6 6/9/6
